<?xml version="1.0" encoding="utf-8"?>
<!-- Generator: Adobe Illustrator 24.3.0, SVG Export Plug-In . SVG Version: 6.00 Build 0)  -->
<svg version="1.1" id="图层_1" xmlns="http://www.w3.org/2000/svg" xmlns:xlink="http://www.w3.org/1999/xlink" x="0px" y="0px"
	 viewBox="0 0 200 200" style="enable-background:new 0 0 200 200;" xml:space="preserve">
<style type="text/css">
	.st0{fill:#FFFD01;}
</style>
<path class="st0" d="M33.9,21c6.7,2.5,10.7,10.5,7.2,17l-8.4-8.5l3.2-3.2l-2-2c-1.1,1.1-2.9,1.3-4.1,0.8l-6.4,6.4l3.6,3.6l2.4-2.4
	l8.4,8.5c-4.1,2.3-9.9,1.6-14.1-2.8l-2,2c0.6,0.9,1.1,1.6,1.8,2.3c-0.1,0.1-0.2,0.2-0.2,0.2c-0.1,0-0.2-0.1-0.3-0.1
	c-1.1,0-2,0.9-2,2c0,1.1,0.9,2,2,2c1.1,0,2-0.9,2-2c0-0.1,0-0.2-0.1-0.4l0.3-0.3c4.9,3.3,10.2,3.7,15.9,0.3l2.4,2.4l3.2-3.2
	l-2.4-2.4C51.2,30.9,42.1,20.8,33.9,21L33.9,21L33.9,21z"/>
<path class="st0" d="M178.9,21.3c3.7,6.1,1.9,14.9-4.9,17.8l-1.3-11.9l4.5-0.5l-0.3-2.8c-1.5,0.2-3.1-0.8-3.7-1.9l-9,1l0.6,5.1
	l3.4-0.4l1.3,11.9c-4.6-0.8-8.7-4.9-9.3-11l-2.9,0.3c0,1-0.1,2,0,2.9c-0.1,0-0.3,0-0.3,0c-0.1-0.1-0.1-0.2-0.2-0.3
	c-0.9-0.7-2.1-0.5-2.8,0.4c-0.7,0.9-0.5,2.1,0.3,2.8c0.9,0.7,2.1,0.6,2.8-0.3c0.1-0.1,0.1-0.2,0.2-0.3l0.4,0
	c1.8,5.6,5.7,9.2,12.3,10.1l0.4,3.3l4.5-0.5l-0.4-3.4C186.3,39.8,185.4,26.3,178.9,21.3L178.9,21.3L178.9,21.3z"/>
<path class="st0" d="M27.2,123.9c-7-1.2-12.4-8.3-10.2-15.3l9.9,6.8l-2.6,3.8l2.4,1.6c0.9-1.3,2.6-1.8,3.8-1.6l5.1-7.5l-4.2-2.9
	l-1.9,2.8l-9.9-6.8c3.6-3,9.4-3.3,14.4,0.2l1.6-2.4c-0.8-0.7-1.4-1.4-2.2-1.9c0-0.1,0.2-0.3,0.2-0.3c0.1,0,0.2,0,0.4,0
	c1.1-0.2,1.8-1.3,1.6-2.4c-0.2-1.1-1.2-1.8-2.3-1.6c-1.1,0.2-1.8,1.3-1.6,2.3c0,0.1,0.1,0.2,0.1,0.3l-0.3,0.4
	c-5.4-2.3-10.7-1.8-15.7,2.7l-2.8-1.9l-2.6,3.7l2.8,1.9C8.4,117.4,19.2,125.7,27.2,123.9L27.2,123.9L27.2,123.9z"/>
<path class="st0" d="M130.5,44.9c0.6,7.1-4.8,14.2-12.1,13.9l4-11.3l4.3,1.5l0.9-2.7c-1.5-0.5-2.4-2-2.5-3.3l-8.6-3l-1.7,4.8L118,46
	l-4,11.3c-3.8-2.7-5.7-8.2-3.6-13.9l-2.7-1c-0.5,0.9-1,1.7-1.3,2.6c-0.1,0-0.3-0.1-0.3-0.1c0-0.1,0-0.2-0.1-0.3
	c-0.5-1-1.7-1.4-2.7-0.9c-1,0.5-1.4,1.7-0.9,2.6c0.5,1,1.7,1.4,2.7,1c0.1-0.1,0.2-0.1,0.3-0.2l0.4,0.1C105,53,107,58,112.5,61.6
	l-1.1,3.2l4.3,1.5l1.1-3.2C129.1,64.8,134.3,52.2,130.5,44.9L130.5,44.9L130.5,44.9z"/>
<path class="st0" d="M59.2,152.3c2.7,6.6-0.4,15-7.5,16.8l0.5-12l4.6,0.2l0.1-2.8c-1.6-0.1-2.9-1.2-3.4-2.4l-9.1-0.3l-0.2,5.1
	l3.4,0.1l-0.5,12c-4.5-1.5-7.9-6.2-7.5-12.3l-2.9-0.1c-0.2,1-0.4,1.9-0.5,2.8c-0.1,0-0.3,0-0.3,0c-0.1-0.1-0.1-0.2-0.2-0.3
	c-0.7-0.8-2-0.8-2.8-0.1c-0.8,0.7-0.8,2-0.1,2.8c0.7,0.8,2,0.9,2.8,0.1c0.1-0.1,0.2-0.2,0.2-0.3l0.4,0c0.9,5.8,4.2,10,10.6,11.8
	l-0.1,3.4l4.5,0.2l0.1-3.4C63.7,171.7,65,158.1,59.2,152.3L59.2,152.3L59.2,152.3z"/>
<path class="st0" d="M117,120.1c3.3-6.3,11.7-9.4,17.7-5.1l-9.5,7.4l-2.8-3.6l-2.2,1.8c0.9,1.2,1,3,0.3,4.1l5.6,7.2l4-3.2l-2.1-2.7
	l9.4-7.4c1.8,4.4,0.3,10-4.5,13.6l1.8,2.3c0.9-0.5,1.7-0.9,2.5-1.5c0.1,0.1,0.2,0.3,0.2,0.3c0,0.1-0.1,0.2-0.1,0.3
	c-0.1,1.1,0.7,2.1,1.8,2.2c1.1,0.1,2.1-0.6,2.2-1.7c0.1-1.1-0.6-2.1-1.7-2.2c-0.1,0-0.2,0-0.4,0l-0.3-0.3c3.8-4.4,4.9-9.7,2.2-15.8
	l2.6-2.1L141,110l-2.7,2.1C128.9,104.1,117.7,111.9,117,120.1L117,120.1L117,120.1z"/>
<path class="st0" d="M163.9,83c6.2-3.5,14.9-1.4,17.6,5.4l-11.9,1l-0.4-4.6l-2.8,0.2c0.1,1.6-0.8,3.1-2,3.7l0.8,9.1l5.1-0.4
	l-0.3-3.4l11.9-1c-0.9,4.6-5.2,8.5-11.3,8.9l0.2,2.9c1,0.1,2,0.2,2.9,0.1c0,0.1,0,0.3,0,0.3c-0.1,0.1-0.2,0.1-0.3,0.2
	c-0.7,0.8-0.5,2.1,0.3,2.8c0.8,0.7,2.1,0.6,2.8-0.2c0.7-0.8,0.6-2.1-0.2-2.8c-0.1-0.1-0.2-0.1-0.3-0.2l0-0.4
	c5.6-1.6,9.4-5.4,10.5-12l3.3-0.3l-0.4-4.5l-3.4,0.3C182.6,76.1,169,76.6,163.9,83L163.9,83L163.9,83z"/>
<path class="st0" d="M91,85.1c-2.5,6.7-10.5,10.7-17,7.2l8.5-8.4l3.2,3.2l2-2c-1.1-1.1-1.3-2.9-0.8-4.1l-6.4-6.4l-3.6,3.6l2.4,2.4
	l-8.5,8.4c-2.3-4.1-1.6-9.9,2.8-14.1l-2-2c-0.9,0.6-1.6,1.1-2.3,1.8c-0.1-0.1-0.2-0.2-0.2-0.2c0-0.1,0.1-0.2,0.1-0.3
	c0-1.1-0.9-2-2-2c-1.1,0-2,0.9-2,2c0,1.1,0.9,2,2,2c0.1,0,0.2,0,0.4-0.1l0.3,0.3c-3.3,4.9-3.7,10.2-0.3,15.9l-2.4,2.4l3.2,3.2
	l2.4-2.4C81.1,102.4,91.2,93.3,91,85.1L91,85.1L91,85.1z"/>
<path class="st0" d="M87,172.9c-1.9-6.8,2.1-14.8,9.4-15.9l-1.8,11.8l-4.5-0.7l-0.4,2.8c1.5,0.3,2.8,1.5,3.1,2.8l9,1.4l0.8-5.1
	l-3.4-0.5l1.8-11.8c4.3,2,7.1,7,6.1,13l2.9,0.4c0.3-1,0.6-1.9,0.8-2.8c0.1,0,0.3,0.1,0.3,0.1c0,0.1,0.1,0.2,0.2,0.3
	c0.6,0.9,1.9,1,2.8,0.4c0.9-0.6,1.1-1.9,0.4-2.8c-0.6-0.9-1.9-1.1-2.8-0.5c-0.1,0.1-0.2,0.2-0.3,0.3l-0.4-0.1
	c-0.2-5.9-3.1-10.4-9.2-13l0.5-3.3l-4.5-0.7l-0.5,3.3C84.7,153.1,82,166.5,87,172.9L87,172.9L87,172.9z"/>
<path class="st0" d="M163,158.5c7,1.1,12.6,8.1,10.6,15.1l-10-6.6l2.5-3.8l-2.4-1.6c-0.9,1.3-2.5,1.9-3.8,1.7l-5,7.6l4.3,2.8
	l1.9-2.9l10,6.6c-3.6,3.1-9.3,3.5-14.4,0.1l-1.6,2.4c0.8,0.7,1.4,1.4,2.2,1.9c0,0.1-0.2,0.3-0.2,0.3c-0.1,0-0.2,0-0.4,0
	c-1.1,0.2-1.7,1.3-1.5,2.4c0.2,1.1,1.3,1.8,2.3,1.5c1.1-0.2,1.8-1.3,1.6-2.4c0-0.1-0.1-0.2-0.1-0.3l0.2-0.4c5.4,2.2,10.7,1.5,15.6-3
	l2.8,1.8l2.5-3.8l-2.8-1.9C182,164.6,171,156.6,163,158.5L163,158.5L163,158.5z"/>
</svg>
